<svg xmlns="http://www.w3.org/2000/svg" width="512" height="512" viewBox="0 0 512 512" version="1.1"><path d="M 191.500 29.993 C 167.452 36.899, 143.023 48.507, 122.500 62.778 C 68.787 100.129, 33.556 156.711, 23.339 222.036 C 20.830 238.075, 20.830 273.925, 23.339 289.964 C 35.247 366.101, 81.888 430.890, 149.500 465.218 C 163.780 472.467, 179.152 478.594, 191.500 481.957 C 195.900 483.155, 200.287 484.360, 201.250 484.635 C 202.909 485.109, 203 479.703, 203 381.067 L 203 277 174.179 277 L 145.359 277 139.934 274.250 C 132.459 270.461, 128.667 264.318, 128.667 256 C 128.667 247.682, 132.459 241.539, 139.934 237.750 L 145.359 235 174.179 235 L 203 235 203 131 C 203 73.800, 202.662 27.027, 202.250 27.061 C 201.838 27.094, 197 28.414, 191.500 29.993" stroke="none" fill="#1782fc" fill-rule="evenodd"/><path d="M 237 21.603 C 220.875 23.536, 215.620 24.314, 209.750 25.638 L 203 27.160 203 131.080 L 203 235 219 235 L 235 235 235 190.179 L 235 145.359 237.750 139.934 C 241.539 132.459, 247.682 128.667, 256 128.667 C 264.318 128.667, 270.461 132.459, 274.250 139.934 L 277 145.359 277 190.179 L 277 235 321.821 235 L 366.641 235 372.066 237.750 C 379.541 241.539, 383.333 247.682, 383.333 256 C 383.333 264.318, 379.541 270.461, 372.066 274.250 L 366.641 277 321.821 277 L 277 277 277 321.821 L 277 366.641 274.250 372.066 C 270.461 379.541, 264.318 383.333, 256 383.333 C 247.682 383.333, 241.539 379.541, 237.750 372.066 L 235 366.641 235 321.821 L 235 277 219 277 L 203 277 203 380.933 C 203 479.043, 203.098 484.896, 204.750 485.406 C 211.139 487.382, 234.096 490.179, 248 490.677 C 288.577 492.129, 325.795 483.853, 362.500 465.218 C 427.358 432.289, 473.663 370.492, 486.948 299.133 C 501.186 222.656, 477.143 145.211, 422.012 89.969 C 403.961 71.881, 384.889 58.139, 361.233 46.177 C 338.861 34.864, 315.376 27.313, 290.500 23.433 C 280.955 21.944, 244.541 20.698, 237 21.603" stroke="none" fill="#4fd5fc" fill-rule="evenodd"/></svg>