<svg xmlns="http://www.w3.org/2000/svg" width="512" height="512" viewBox="0 0 512 512" version="1.1"><path d="M 161.445 19.992 C 145.226 22.373, 133.380 34.963, 132.229 51.039 L 131.731 58 83.576 58 C 32.249 58, 29.347 58.232, 19.831 63.086 C 13.878 66.123, 6.821 73.626, 3.440 80.513 C 0.754 85.984, 0.500 87.406, 0.500 97 C 0.500 106.594, 0.754 108.016, 3.440 113.487 C 9.262 125.346, 19.971 133.038, 33.615 135.162 C 37.967 135.840, 70.203 136.078, 126.637 135.850 L 212.998 135.500 268.223 80.274 C 303.424 45.074, 323.096 24.708, 322.474 24.108 C 321.938 23.591, 320.600 23.017, 319.500 22.834 C 318.400 22.650, 317.265 22.189, 316.977 21.808 C 315.270 19.551, 299.087 19.023, 235 19.132 C 197.325 19.197, 164.225 19.584, 161.445 19.992 M 38.189 235.750 C 38.293 282.913, 38.536 318.800, 38.729 315.500 L 39.080 309.500 74.605 273.930 L 110.131 238.359 110.722 219.595 C 111.252 202.757, 111.529 200.506, 113.420 197.666 C 117.119 192.107, 120.712 191.091, 137 191.003 C 144.975 190.960, 152.638 191.158, 154.029 191.442 C 156.242 191.894, 159.183 189.332, 177.520 170.980 L 198.482 150 118.241 150 L 38 150 38.189 235.750" stroke="none" fill="#fc6e55" fill-rule="evenodd"/><path d="M 268.541 79.719 L 213.582 134.938 202.541 135.255 C 196.468 135.430, 245.950 135.666, 312.500 135.780 C 387.338 135.909, 435.770 135.617, 439.449 135.014 C 452.027 132.955, 462.978 124.856, 468.560 113.487 C 471.246 108.016, 471.500 106.594, 471.500 97 C 471.500 87.406, 471.246 85.984, 468.560 80.513 C 465.179 73.626, 458.122 66.123, 452.169 63.086 C 442.653 58.232, 439.751 58, 388.424 58 L 340.269 58 339.749 51.250 C 338.935 40.678, 335.143 33.856, 325.989 26.500 L 323.500 24.500 268.541 79.719 M 177.165 171.335 L 155.847 192.670 158.507 194.413 C 164.218 198.155, 164 193.477, 163.998 312.218 C 163.997 434.150, 164.483 425.800, 157.102 430.730 C 153.907 432.865, 152.705 433, 136.929 433 C 120.291 433, 120.128 432.979, 117.041 430.381 C 110.635 424.991, 111.018 431.482, 110.815 324.800 C 110.713 271.285, 110.469 229.975, 110.273 233 L 109.915 238.500 74.208 274.255 L 38.500 310.009 38.178 379.389 C 37.961 426.045, 38.209 450.678, 38.933 454.598 C 42.059 471.503, 53.983 485.092, 70.091 490.105 C 75.958 491.932, 81.952 492, 236 492 C 390.048 492, 396.042 491.932, 401.909 490.105 C 418.522 484.935, 430.453 470.866, 432.953 453.500 C 433.507 449.650, 433.969 440.650, 433.980 433.500 L 434 420.500 413.750 420.454 C 391.364 420.404, 386.619 419.570, 369.406 412.659 L 361 409.283 360.996 415.892 C 360.992 423.545, 358.929 427.853, 353.759 431.005 C 350.864 432.771, 348.701 432.993, 334.398 432.996 C 319.319 433, 318.080 432.856, 314.898 430.730 C 308.111 426.196, 308.003 425.508, 308.002 386.840 L 308 352.180 305.122 343.340 C 301.022 330.746, 299.596 321.305, 299.632 307 C 299.666 293.474, 301.532 282.210, 305.614 270.879 C 307.934 264.441, 308 263.406, 308 233.363 C 308 198.915, 308.176 197.908, 314.999 193.250 C 318.082 191.146, 319.339 191, 334.398 191.004 C 348.701 191.007, 350.864 191.229, 353.759 192.995 C 357.501 195.276, 360.991 200.462, 360.996 203.750 C 361.001 206.585, 361.474 206.565, 368.558 203.432 C 383.631 196.766, 406.715 193.227, 423.500 195.009 C 428.450 195.535, 432.837 195.972, 433.250 195.982 C 433.663 195.992, 434 185.650, 434 173 L 434 150 316.241 150 L 198.483 150 177.165 171.335 M 216.990 193.250 C 215.172 194.488, 212.743 196.770, 211.592 198.323 L 209.500 201.147 209.500 311.823 C 209.500 416.480, 209.598 422.679, 211.299 425.794 C 214.800 432.207, 217.495 432.993, 236 432.993 C 254.505 432.993, 257.200 432.207, 260.701 425.794 C 262.402 422.679, 262.500 416.480, 262.500 311.823 L 262.500 201.147 260.408 198.323 C 259.257 196.770, 256.828 194.488, 255.010 193.250 C 251.928 191.153, 250.640 191, 236 191 C 221.360 191, 220.072 191.153, 216.990 193.250 M 391.820 210.913 C 376.692 214.205, 361.470 221.739, 349.164 232.026 C 332.307 246.116, 320.271 266.244, 315.815 287.798 C 313.203 300.433, 313.682 321.415, 316.855 333.284 C 321.286 349.859, 330.444 365.596, 342.924 378.076 C 351.824 386.976, 360.092 392.767, 371.597 398.159 C 386.061 404.936, 393.061 406.352, 412.500 406.431 C 427.310 406.491, 430.595 406.201, 438 404.180 C 455.356 399.441, 470.453 390.699, 483.076 378.076 C 491.976 369.176, 497.767 360.908, 503.159 349.403 C 510.046 334.705, 511.379 327.990, 511.379 308 C 511.379 288.010, 510.046 281.295, 503.159 266.597 C 497.767 255.092, 491.976 246.824, 483.076 237.924 C 470.603 225.451, 454.886 216.301, 438.284 211.847 C 426.910 208.796, 403.691 208.329, 391.820 210.913 M 372.879 267.879 C 365.452 275.306, 365 276.007, 365 280.114 C 365 284.339, 365.352 284.822, 376.734 296.235 L 388.469 308 376.734 319.765 C 365.352 331.178, 365 331.661, 365 335.886 C 365 339.993, 365.452 340.694, 372.879 348.121 C 380.306 355.548, 381.007 356, 385.114 356 C 389.338 356, 389.826 355.645, 401.274 344.250 L 413.078 332.500 424.507 344.250 C 435.867 355.929, 435.965 356, 440.589 356 C 445.066 356, 445.541 355.702, 453.121 348.121 C 460.504 340.738, 461 339.973, 461 335.964 C 461 331.844, 460.565 331.245, 449.285 319.824 L 437.569 307.962 449.285 296.216 C 460.648 284.823, 461 284.339, 461 280.114 C 461 276.007, 460.548 275.306, 453.121 267.879 C 445.694 260.452, 444.993 260, 440.886 260 C 436.661 260, 436.178 260.352, 424.765 271.734 L 413 283.469 401.235 271.734 C 389.822 260.352, 389.339 260, 385.114 260 C 381.007 260, 380.306 260.452, 372.879 267.879" stroke="none" fill="#fc5144" fill-rule="evenodd"/></svg>