<svg xmlns="http://www.w3.org/2000/svg" width="512" height="512" viewBox="0 0 512 512" version="1.1"><path d="M 48 343.099 L 48 499.651 50.314 501.826 L 52.629 504 209.041 504 L 365.453 504 357.500 496 L 349.547 488 206.773 488 L 64 488 64 345.227 L 64 202.453 56 194.500 L 48 186.547 48 343.099 M 88 243.099 C 88 265.176, 86.817 264, 109.041 264 L 125.453 264 117.500 256 C 111.371 249.835, 108.911 248, 106.773 248 C 104.409 248, 104 247.591, 104 245.227 C 104 243.089, 102.165 240.629, 96 234.500 L 88 226.547 88 243.099 M 90.174 282.314 C 88.095 284.527, 88 285.484, 88 304.140 C 88 323.242, 88.049 323.697, 90.314 325.826 C 92.625 327.996, 92.711 328, 141.041 328 L 189.453 328 181.500 320 L 173.547 312 138.773 312 L 104 312 104 304 L 104 296 130.727 296 L 157.453 296 149.500 288 L 141.547 280 116.948 280 C 92.528 280, 92.333 280.017, 90.174 282.314 M 90.174 346.314 C 87.195 349.486, 87.261 354.957, 90.314 357.826 L 92.629 360 157.041 360 L 221.453 360 213.500 352 L 205.547 344 148.948 344 L 92.349 344 90.174 346.314 M 90.174 370.314 C 87.195 373.486, 87.261 378.957, 90.314 381.826 L 92.629 384 148.140 384 L 203.651 384 205.826 381.686 C 208.805 378.514, 208.739 373.043, 205.686 370.174 L 203.371 368 147.860 368 L 92.349 368 90.174 370.314 M 90.174 394.314 C 87.195 397.486, 87.261 402.957, 90.314 405.826 C 92.414 407.798, 93.698 408, 104.140 408 C 114.880 408, 115.797 407.845, 117.826 405.686 C 120.805 402.514, 120.739 397.043, 117.686 394.174 C 115.586 392.202, 114.302 392, 103.860 392 C 93.120 392, 92.203 392.155, 90.174 394.314 M 130.174 394.314 C 127.195 397.486, 127.261 402.957, 130.314 405.826 C 132.267 407.660, 133.804 408, 140.140 408 C 146.699 408, 147.927 407.706, 149.826 405.686 C 152.805 402.514, 152.739 397.043, 149.686 394.174 C 147.733 392.340, 146.196 392, 139.860 392 C 133.301 392, 132.073 392.294, 130.174 394.314 M 74.174 466.314 C 71.195 469.486, 71.261 474.957, 74.314 477.826 C 76.555 479.931, 77.377 480, 100.140 480 C 123.423 480, 123.672 479.978, 125.826 477.686 C 128.805 474.514, 128.739 469.043, 125.686 466.174 C 123.445 464.069, 122.623 464, 99.860 464 C 76.577 464, 76.328 464.022, 74.174 466.314 M 138.174 466.314 C 135.195 469.486, 135.261 474.957, 138.314 477.826 C 140.267 479.660, 141.804 480, 148.140 480 C 154.699 480, 155.927 479.706, 157.826 477.686 C 160.805 474.514, 160.739 469.043, 157.686 466.174 C 155.733 464.340, 154.196 464, 147.860 464 C 141.301 464, 140.073 464.294, 138.174 466.314" stroke="none" fill="#045b9a" fill-rule="evenodd"/><path d="M 82.174 10.314 C 80.161 12.458, 80 13.639, 80 26.314 L 80 40 66.174 40 C 53.015 40, 52.244 40.112, 50.174 42.314 L 48 44.629 48 115.588 L 48 186.547 56 194.500 L 64 202.453 64 129.227 L 64 56 192 56 L 320 56 320 85.826 L 320 115.651 322.314 117.826 C 324.583 119.957, 325.212 120, 354.314 120 L 384 120 384 304 L 384 488 366.773 488 L 349.547 488 357.500 496 L 365.453 504 380.552 504 C 400.628 504, 400 504.591, 400 485.686 L 400 472 413.826 472 C 426.985 472, 427.756 471.888, 429.826 469.686 L 432 467.371 432 271.930 L 432 76.489 397.745 42.245 L 363.489 8 223.919 8 L 84.349 8 82.174 10.314 M 96 32 L 96 40 213.745 40 L 331.489 40 365.745 74.245 L 400 108.489 400 282.245 L 400 456 408 456 L 416 456 416 269.744 L 416 83.487 386.244 53.744 L 356.488 24 226.244 24 L 96 24 96 32 M 336 86 L 336 104 354.240 104 L 372.479 104 354.500 86 C 344.611 76.100, 336.404 68, 336.260 68 C 336.117 68, 336 76.100, 336 86 M 90.174 154.314 C 88.095 156.527, 88 157.484, 88 176.140 C 88 195.242, 88.049 195.697, 90.314 197.826 L 92.629 200 224.140 200 L 355.651 200 357.826 197.686 C 359.905 195.473, 360 194.516, 360 175.860 C 360 156.758, 359.951 156.303, 357.686 154.174 L 355.371 152 223.860 152 L 92.349 152 90.174 154.314 M 104 176 L 104 184 224 184 L 344 184 344 176 L 344 168 224 168 L 104 168 104 176 M 90.174 218.314 C 86.071 222.682, 87.163 225.714, 96 234.500 L 104 242.453 104 237.227 L 104 232 224 232 L 344 232 344 240 L 344 248 226.773 248 L 109.547 248 117.500 256 L 125.453 264 240.552 264 L 355.651 264 357.826 261.686 C 359.905 259.473, 360 258.516, 360 239.860 C 360 220.758, 359.951 220.303, 357.686 218.174 L 355.371 216 223.860 216 L 92.349 216 90.174 218.314 M 149.500 288 L 157.453 296 250.727 296 L 344 296 344 304 L 344 312 258.773 312 L 173.547 312 181.500 320 L 189.453 328 272.552 328 L 355.651 328 357.826 325.686 C 359.905 323.473, 360 322.516, 360 303.860 C 360 284.758, 359.951 284.303, 357.686 282.174 L 355.371 280 248.459 280 L 141.547 280 149.500 288 M 213.500 352 L 221.453 360 236.552 360 C 251.042 360, 251.739 359.907, 253.826 357.686 C 256.805 354.514, 256.739 349.043, 253.686 346.174 C 251.448 344.073, 250.607 344, 228.459 344 L 205.547 344 213.500 352" stroke="none" fill="#04b8d0" fill-rule="evenodd"/></svg>