<svg xmlns="http://www.w3.org/2000/svg" width="512" height="512" viewBox="0 0 512 512" version="1.1"><path d="M 223.564 1.625 C 189.116 6.037, 148.947 20.301, 120.811 38.112 C 88.146 58.791, 58.791 88.146, 38.112 120.811 C 24.679 142.030, 11.372 174.858, 5.607 201 C -1.983 235.420, -1.984 276.553, 5.605 311 C 8.279 323.141, 16.285 348.386, 19.888 356.044 L 22.026 360.588 41.488 341.037 L 60.950 321.486 59.428 316.493 C 48.866 281.867, 47.873 242.194, 56.662 206 C 70.259 150.009, 110.074 99.986, 162.467 73.067 C 191.545 58.128, 221.871 50.869, 255.500 50.800 C 275.105 50.759, 290.044 52.615, 309.143 57.464 L 321.786 60.674 341.241 41.291 C 356.725 25.864, 360.370 21.737, 359.098 21.072 C 356.090 19.499, 337.506 12.764, 329.716 10.424 C 317.293 6.691, 300.492 3.193, 287.030 1.536 C 271.561 -0.369, 238.774 -0.323, 223.564 1.625 M 232 131.740 L 232 150.480 250.500 132 C 260.675 121.836, 269 113.403, 269 113.260 C 269 113.117, 260.675 113, 250.500 113 L 232 113 232 131.740 M 129 218.745 L 129 253.489 163.250 219.301 C 193.348 189.258, 197.924 185.065, 201 184.716 C 202.925 184.498, 187.512 184.248, 166.750 184.160 L 129 184 129 218.745" stroke="none" fill="#4baff9" fill-rule="evenodd"/><path d="M 341.450 41.075 C 323.987 58.455, 321.546 61.296, 323.833 61.584 C 324.596 61.680, 326.238 62.366, 338 67.505 C 382.216 86.822, 420.230 123.466, 441.187 166.971 C 454.840 195.312, 461.171 223.520, 461.171 256 C 461.171 311.933, 440.696 361.356, 401.062 401.092 C 361.730 440.526, 311.882 461.171, 256 461.171 C 209.469 461.171, 168.335 447.245, 130.533 418.692 C 111.684 404.455, 89.890 379.453, 77.684 358.065 C 71.874 347.883, 63 328.730, 63 326.371 C 63 325.617, 62.523 325, 61.941 325 C 61.359 325, 61.141 324.581, 61.457 324.069 C 61.774 323.557, 61.652 322.903, 61.187 322.615 C 60.721 322.328, 51.608 330.867, 40.935 341.591 C 25.574 357.026, 21.838 361.286, 23.014 362.030 C 23.831 362.547, 24.126 362.976, 23.669 362.985 C 22.353 363.009, 35.086 386.723, 41.978 397.085 C 58.957 422.612, 80.749 445.392, 105.368 463.352 C 132.560 483.189, 167.874 499.081, 201.066 506.419 C 234.922 513.903, 277.078 513.903, 310.934 506.419 C 387.048 489.593, 451.691 438.710, 486.076 368.557 C 503.702 332.599, 512 296.568, 512 256 C 512 215.377, 503.668 179.233, 486.065 143.500 C 472.549 116.063, 458.829 96.840, 437.504 75.459 C 416.887 54.789, 399.001 41.578, 374.188 28.693 L 360.850 21.767 341.450 41.075 M 250.740 131.760 L 232 150.519 232 203.260 L 232 256 211.977 256 L 191.955 256 223.549 291.500 C 240.926 311.025, 255.529 327, 256 327 C 256.471 327, 271.074 311.025, 288.451 291.500 L 320.045 256 300.023 256 L 280 256 280 184.500 L 280 113 274.740 113 L 269.480 113 250.740 131.760 M 201 184.699 C 197.933 185.062, 193.258 189.347, 163.250 219.301 L 129 253.489 129 326.245 L 129 399 256 399 L 383 399 383 291.500 L 383 184 342.982 184 L 302.964 184 303.232 208.250 L 303.500 232.500 319.250 232.775 L 335 233.051 335 292.025 L 335 351 256 351 L 177 351 177 292.025 L 177 233.051 192.750 232.775 L 208.500 232.500 208.500 208.500 C 208.500 181.580, 209.179 183.734, 201 184.699" stroke="none" fill="#277be1" fill-rule="evenodd"/></svg>