<svg xmlns="http://www.w3.org/2000/svg" width="512" height="512" viewBox="0 0 512 512" version="1.1"><path d="M 83.303 29.218 L 61.004 51.437 41.694 32.218 C 25.116 15.719, 21.954 13, 19.347 13 C 15.626 13, 13 15.698, 13 19.520 C 13 21.902, 16.233 25.631, 32.218 41.694 L 51.437 61.004 29.218 83.303 C 12.240 100.343, 7.006 106.179, 7.025 108.051 C 7.040 109.488, 9.072 112.930, 11.942 116.381 C 21.539 127.919, 26 140.275, 26 155.316 C 26 170.244, 21.039 183.846, 11.587 194.832 C 8.623 198.277, 7 201.105, 7 202.824 C 7 205.025, 32.310 230.801, 153.750 352.274 C 276.768 475.325, 301.381 499.498, 305.950 501.747 C 313.492 505.460, 321.587 505.884, 329.500 502.979 C 335.289 500.853, 338.412 497.864, 418.138 418.138 C 497.864 338.412, 500.853 335.289, 502.979 329.500 C 505.884 321.587, 505.460 313.492, 501.747 305.950 C 499.498 301.381, 475.325 276.768, 352.274 153.750 C 230.801 32.310, 205.025 7, 202.824 7 C 201.105 7, 198.277 8.623, 194.832 11.587 C 183.846 21.039, 170.244 26, 155.316 26 C 140.275 26, 127.919 21.539, 116.381 11.942 C 112.930 9.072, 109.488 7.040, 108.051 7.025 C 106.179 7.006, 100.343 12.240, 83.303 29.218 M 88.932 41.569 L 69.532 60.987 72.061 63.516 L 74.590 66.045 80.773 62.955 C 100.379 53.159, 123.151 59.419, 134.864 77.827 C 144.877 93.563, 142.332 115.572, 128.952 128.952 C 118.178 139.727, 101.174 143.825, 87.083 139.044 C 62.328 130.644, 51.320 104.059, 62.955 80.773 L 66.045 74.590 63.516 72.061 L 60.987 69.532 41.599 88.901 L 22.212 108.269 26.604 114.817 C 43.371 139.818, 42.659 174.225, 24.873 198.477 L 21.956 202.454 165.228 345.825 C 249.483 430.139, 309.826 489.774, 311.718 490.598 C 315.830 492.390, 322.165 492.391, 326.282 490.601 C 330.461 488.784, 489.540 329.466, 490.950 325.685 C 493 320.189, 492.256 313.645, 489.100 309.400 C 487.505 307.255, 422.367 241.730, 344.350 163.790 L 202.500 22.079 196 26.506 C 171.697 43.058, 138.979 42.963, 114.396 26.269 L 108.331 22.150 88.932 41.569 M 94.500 70.618 C 91.184 71.437, 86.581 73.273, 85.209 74.324 C 84.233 75.072, 86.604 78.034, 94.959 86.503 C 101.032 92.657, 106 98.457, 106 99.392 C 106 101.589, 101.589 106, 99.392 106 C 98.457 106, 92.657 101.032, 86.503 94.959 C 78.034 86.604, 75.072 84.233, 74.324 85.209 C 70.094 90.732, 69.282 103.458, 72.677 111.051 C 81.231 130.185, 105.830 135.013, 120.421 120.421 C 134.843 105.999, 130.165 81.153, 111.472 72.884 C 107.185 70.988, 97.979 69.759, 94.500 70.618 M 217.878 78.905 C 215.057 79.961, 78.936 215.421, 78.348 217.757 C 77.483 221.194, 80.449 225, 83.991 225 C 86.552 225, 95.937 216.052, 155.929 156.412 C 193.874 118.689, 225.201 86.942, 225.543 85.863 C 226.779 81.971, 221.789 77.441, 217.878 78.905 M 167.553 165.750 C 130.155 203.012, 98.997 234.400, 98.314 235.500 C 97.630 236.600, 97.055 238.132, 97.035 238.904 C 97.016 239.676, 102.038 245.413, 108.195 251.654 C 117.695 261.283, 119.852 262.994, 122.445 262.957 C 125.130 262.919, 133.893 254.590, 194.780 194.207 C 248.695 140.738, 264.053 124.967, 264.030 123.096 C 264.009 121.398, 260.716 117.365, 252.805 109.346 C 243.429 99.843, 241.118 98, 238.580 98 C 235.904 98, 227.578 105.941, 167.553 165.750 M 174.731 175.769 L 111.969 238.537 117.234 243.673 L 122.500 248.810 186 185.945 L 249.500 123.080 244.538 118.040 C 241.808 115.268, 239.107 113, 238.535 113 C 237.962 113, 209.251 141.246, 174.731 175.769 M 205.428 204.690 C 141.539 267.900, 136 273.643, 136 276.667 C 136 280.958, 139.855 283.843, 143.419 282.219 C 144.704 281.633, 176.635 250.464, 214.378 212.954 C 272.866 154.826, 283 144.338, 283 141.934 C 283 138.897, 279.927 136, 276.705 136 C 275.597 136, 247.017 163.542, 205.428 204.690 M 223.360 223.197 C 166.960 279.464, 154 292.881, 154 295.002 C 154 298.584, 175.515 320.005, 179.096 319.989 C 180.932 319.981, 197.897 303.735, 250.887 251.239 C 311.188 191.500, 320.272 182.119, 320.262 179.593 C 320.252 177.220, 318.147 174.605, 308.791 165.343 C 300.846 157.479, 296.624 154, 295.026 154 C 293.309 154, 275.011 171.668, 223.360 223.197 M 231.801 231.797 L 168.500 294.926 173.692 300.143 L 178.884 305.360 234.692 250.254 C 265.386 219.946, 293.990 191.615, 298.256 187.296 L 306.012 179.444 300.557 174.056 L 295.102 168.669 231.801 231.797 M 261.545 259.750 C 224.120 297.012, 192.868 328.711, 192.096 330.191 C 190.099 334.020, 192.691 338, 197.181 338 C 199.993 338, 207.372 330.981, 268.908 269.765 C 306.634 232.236, 337.912 200.546, 338.416 199.343 C 339.836 195.951, 336.799 192, 332.772 192 C 329.897 192, 323.028 198.534, 261.545 259.750 M 279.469 280.262 C 215.707 343.575, 209.777 349.739, 210.441 352.012 C 211.408 355.321, 233.159 377, 235.512 377 C 237.629 377, 247.754 367.195, 322.750 292.523 C 365.772 249.686, 377 237.985, 377 235.987 C 377 232.307, 355.551 211, 351.847 211 C 349.714 211, 336.209 223.924, 279.469 280.262 M 288.074 288.750 L 224.810 351.500 230.212 356.775 L 235.613 362.049 299.056 299.122 L 362.500 236.195 357.538 231.098 C 354.808 228.294, 352.297 226, 351.956 226 C 351.616 226, 322.869 254.238, 288.074 288.750 M 319.070 317.250 C 281.356 354.788, 250.169 385.950, 249.765 386.500 C 246.695 390.679, 251.713 397.261, 256.561 395.416 C 257.884 394.912, 289.799 363.732, 327.483 326.126 C 385.799 267.932, 396 257.332, 396 254.932 C 396 251.858, 392.916 249, 389.597 249 C 388.342 249, 363.021 273.504, 319.070 317.250 M 351.144 321.911 C 273.905 398.132, 267 405.195, 267 407.981 C 267 409.602, 270.396 413.749, 278.195 421.654 C 287.464 431.048, 289.900 433, 292.355 433 C 294.946 433, 304.075 424.259, 364.670 363.750 C 409.437 319.048, 434.017 293.807, 434.010 292.546 C 433.997 290.051, 411.066 267, 408.598 267 C 407.548 267, 383.406 290.073, 351.144 321.911 M 345 344.978 L 281.500 407.840 286.686 413.094 L 291.872 418.348 304.686 406.238 C 311.734 399.578, 340.344 371.254, 368.265 343.295 L 419.031 292.462 413.765 287.288 L 408.500 282.115 345 344.978 M 374.550 373.154 C 336.795 410.639, 305.456 442.147, 304.907 443.173 C 303.233 446.302, 305.872 450.438, 309.785 450.815 C 312.898 451.116, 316.379 447.842, 382.060 382.861 C 420.096 345.230, 451.324 313.558, 451.642 312.289 C 452.508 308.838, 449.576 305, 446.074 305 C 443.601 305, 433.508 314.618, 374.550 373.154" stroke="none" fill="#050607" fill-rule="evenodd"/><path d="M 88.932 41.569 L 69.532 60.987 72.061 63.516 L 74.590 66.045 80.773 62.955 C 100.379 53.159, 123.151 59.419, 134.864 77.827 C 144.877 93.563, 142.332 115.572, 128.952 128.952 C 118.178 139.727, 101.174 143.825, 87.083 139.044 C 62.328 130.644, 51.320 104.059, 62.955 80.773 L 66.045 74.590 63.516 72.061 L 60.987 69.532 41.599 88.901 L 22.212 108.269 26.604 114.817 C 43.371 139.818, 42.659 174.225, 24.873 198.477 L 21.956 202.454 165.228 345.825 C 249.483 430.139, 309.826 489.774, 311.718 490.598 C 315.830 492.390, 322.165 492.391, 326.282 490.601 C 330.461 488.784, 489.540 329.466, 490.950 325.685 C 493 320.189, 492.256 313.645, 489.100 309.400 C 487.505 307.255, 422.367 241.730, 344.350 163.790 L 202.500 22.079 196 26.506 C 171.697 43.058, 138.979 42.963, 114.396 26.269 L 108.331 22.150 88.932 41.569 M 94.500 70.618 C 91.184 71.437, 86.581 73.273, 85.209 74.324 C 84.233 75.072, 86.604 78.034, 94.959 86.503 C 101.032 92.657, 106 98.457, 106 99.392 C 106 101.589, 101.589 106, 99.392 106 C 98.457 106, 92.657 101.032, 86.503 94.959 C 78.034 86.604, 75.072 84.233, 74.324 85.209 C 70.094 90.732, 69.282 103.458, 72.677 111.051 C 81.231 130.185, 105.830 135.013, 120.421 120.421 C 134.843 105.999, 130.165 81.153, 111.472 72.884 C 107.185 70.988, 97.979 69.759, 94.500 70.618 M 217.878 78.905 C 215.057 79.961, 78.936 215.421, 78.348 217.757 C 77.483 221.194, 80.449 225, 83.991 225 C 86.552 225, 95.937 216.052, 155.929 156.412 C 193.874 118.689, 225.201 86.942, 225.543 85.863 C 226.779 81.971, 221.789 77.441, 217.878 78.905 M 167.553 165.750 C 130.155 203.012, 98.997 234.400, 98.314 235.500 C 97.630 236.600, 97.055 238.132, 97.035 238.904 C 97.016 239.676, 102.038 245.413, 108.195 251.654 C 117.695 261.283, 119.852 262.994, 122.445 262.957 C 125.130 262.919, 133.893 254.590, 194.780 194.207 C 248.695 140.738, 264.053 124.967, 264.030 123.096 C 264.009 121.398, 260.716 117.365, 252.805 109.346 C 243.429 99.843, 241.118 98, 238.580 98 C 235.904 98, 227.578 105.941, 167.553 165.750 M 174.731 175.769 L 111.969 238.537 117.234 243.673 L 122.500 248.810 186 185.945 L 249.500 123.080 244.538 118.040 C 241.808 115.268, 239.107 113, 238.535 113 C 237.962 113, 209.251 141.246, 174.731 175.769 M 205.428 204.690 C 141.539 267.900, 136 273.643, 136 276.667 C 136 280.958, 139.855 283.843, 143.419 282.219 C 144.704 281.633, 176.635 250.464, 214.378 212.954 C 272.866 154.826, 283 144.338, 283 141.934 C 283 138.897, 279.927 136, 276.705 136 C 275.597 136, 247.017 163.542, 205.428 204.690 M 223.360 223.197 C 166.960 279.464, 154 292.881, 154 295.002 C 154 298.584, 175.515 320.005, 179.096 319.989 C 180.932 319.981, 197.897 303.735, 250.887 251.239 C 311.188 191.500, 320.272 182.119, 320.262 179.593 C 320.252 177.220, 318.147 174.605, 308.791 165.343 C 300.846 157.479, 296.624 154, 295.026 154 C 293.309 154, 275.011 171.668, 223.360 223.197 M 231.801 231.797 L 168.500 294.926 173.692 300.143 L 178.884 305.360 234.692 250.254 C 265.386 219.946, 293.990 191.615, 298.256 187.296 L 306.012 179.444 300.557 174.056 L 295.102 168.669 231.801 231.797 M 261.545 259.750 C 224.120 297.012, 192.868 328.711, 192.096 330.191 C 190.099 334.020, 192.691 338, 197.181 338 C 199.993 338, 207.372 330.981, 268.908 269.765 C 306.634 232.236, 337.912 200.546, 338.416 199.343 C 339.836 195.951, 336.799 192, 332.772 192 C 329.897 192, 323.028 198.534, 261.545 259.750 M 279.469 280.262 C 215.707 343.575, 209.777 349.739, 210.441 352.012 C 211.408 355.321, 233.159 377, 235.512 377 C 237.629 377, 247.754 367.195, 322.750 292.523 C 365.772 249.686, 377 237.985, 377 235.987 C 377 232.307, 355.551 211, 351.847 211 C 349.714 211, 336.209 223.924, 279.469 280.262 M 288.074 288.750 L 224.810 351.500 230.212 356.775 L 235.613 362.049 299.056 299.122 L 362.500 236.195 357.538 231.098 C 354.808 228.294, 352.297 226, 351.956 226 C 351.616 226, 322.869 254.238, 288.074 288.750 M 319.070 317.250 C 281.356 354.788, 250.169 385.950, 249.765 386.500 C 246.695 390.679, 251.713 397.261, 256.561 395.416 C 257.884 394.912, 289.799 363.732, 327.483 326.126 C 385.799 267.932, 396 257.332, 396 254.932 C 396 251.858, 392.916 249, 389.597 249 C 388.342 249, 363.021 273.504, 319.070 317.250 M 351.144 321.911 C 273.905 398.132, 267 405.195, 267 407.981 C 267 409.602, 270.396 413.749, 278.195 421.654 C 287.464 431.048, 289.900 433, 292.355 433 C 294.946 433, 304.075 424.259, 364.670 363.750 C 409.437 319.048, 434.017 293.807, 434.010 292.546 C 433.997 290.051, 411.066 267, 408.598 267 C 407.548 267, 383.406 290.073, 351.144 321.911 M 345 344.978 L 281.500 407.840 286.686 413.094 L 291.872 418.348 304.686 406.238 C 311.734 399.578, 340.344 371.254, 368.265 343.295 L 419.031 292.462 413.765 287.288 L 408.500 282.115 345 344.978 M 374.550 373.154 C 336.795 410.639, 305.456 442.147, 304.907 443.173 C 303.233 446.302, 305.872 450.438, 309.785 450.815 C 312.898 451.116, 316.379 447.842, 382.060 382.861 C 420.096 345.230, 451.324 313.558, 451.642 312.289 C 452.508 308.838, 449.576 305, 446.074 305 C 443.601 305, 433.508 314.618, 374.550 373.154" stroke="none" fill="#65aef0" fill-rule="evenodd"/></svg>