<svg xmlns="http://www.w3.org/2000/svg" width="512" height="512" viewBox="0 0 512 512" version="1.1"><path d="M 223.564 1.625 C 189.116 6.037, 148.947 20.301, 120.811 38.112 C 88.146 58.791, 58.791 88.146, 38.112 120.811 C 24.679 142.030, 11.372 174.858, 5.607 201 C -1.982 235.413, -1.984 276.519, 5.601 311 C 8.817 325.622, 18.085 353.600, 19.107 351.774 C 19.520 351.035, 26.556 344.446, 34.741 337.132 L 49.624 323.833 46.403 310.905 C 41.281 290.348, 39.633 276.960, 39.648 256 C 39.672 220.077, 46.536 190.918, 62.508 158.889 C 83.235 117.322, 116.810 83.648, 158.228 62.886 C 186.140 48.894, 211.492 42.028, 242.609 40.036 C 273.319 38.069, 303.516 42.635, 332.891 53.689 C 338.176 55.677, 343.063 57.311, 343.750 57.319 C 344.438 57.327, 345 57.739, 345 58.235 C 345 58.731, 347.137 57.146, 349.750 54.713 C 352.363 52.280, 359.541 45.749, 365.702 40.199 L 376.905 30.109 367.202 25.172 C 344.619 13.681, 315.181 5.002, 287.030 1.536 C 271.561 -0.369, 238.774 -0.323, 223.564 1.625 M 191.964 195.097 C 189.127 197.701, 188.593 198.469, 190.500 197.205 C 193.375 195.298, 197.787 191, 196.869 191 C 196.626 191, 194.419 192.844, 191.964 195.097" stroke="none" fill="#14c0f4" fill-rule="evenodd"/><path d="M 361.658 43.719 C 353.139 51.298, 346.131 57.818, 346.085 58.206 C 346.038 58.594, 350.498 61.223, 355.996 64.047 C 387.038 79.992, 416.749 106.642, 436.214 136 C 452.500 160.565, 464.505 190.777, 469.462 219.679 C 480.968 286.755, 459.826 355.666, 412.268 406.102 C 392.203 427.381, 361.532 447.607, 332.541 458.677 C 320.462 463.290, 300.116 468.521, 286 470.644 C 272.259 472.710, 241.816 472.962, 229 471.115 C 174.452 463.256, 126.315 437.389, 91.995 397.495 C 76.741 379.762, 61.235 353.772, 53.517 333 C 51.985 328.875, 50.429 325.160, 50.061 324.745 C 49.007 323.559, 19 350.960, 19 353.108 C 19 356.106, 34.362 385.616, 41.588 396.500 C 83.639 459.835, 151.387 501.811, 225.559 510.488 C 242.111 512.424, 269.889 512.424, 286.441 510.488 C 372.132 500.464, 447.785 446.678, 486.076 368.557 C 503.702 332.599, 512 296.568, 512 256 C 512 215.432, 503.702 179.401, 486.076 143.443 C 463.470 97.322, 426.511 57.841, 382.823 33.146 L 377.147 29.937 361.658 43.719 M 317.500 148.412 C 308.595 150.132, 299 154.047, 292.073 158.787 C 284.836 163.738, 282.667 166.862, 282.667 172.334 C 282.667 180.236, 288.156 186.675, 295.762 187.695 C 299.247 188.162, 301.263 187.538, 309.398 183.473 C 317.519 179.416, 320.044 178.633, 326.302 178.231 C 348.505 176.806, 365.185 192.781, 365.344 215.623 C 365.394 222.811, 365.030 224.496, 362.184 230.278 C 359.408 235.917, 355.007 240.774, 329.984 265.811 C 314.042 281.762, 298.871 296.222, 296.269 297.945 C 285.635 304.989, 272.620 305.818, 260.648 300.216 C 249.099 294.812, 242.081 285.705, 239.893 273.283 C 238.468 265.195, 239.981 257.568, 245.007 247.500 C 247.383 242.740, 248.999 238.083, 248.998 236 C 248.996 231.172, 246.167 225.990, 242 223.181 C 239.127 221.244, 237.554 220.898, 233.218 221.246 C 226.464 221.788, 222.619 225.317, 216.987 236.141 C 207.188 254.977, 206.512 274.019, 214.929 294.138 C 220.911 308.436, 231.507 319.517, 245.983 326.610 C 255.674 331.359, 262.376 333.082, 273.592 333.708 C 290.423 334.647, 303.964 330.356, 317.605 319.761 C 328.032 311.664, 381.306 257.120, 385.265 250.490 C 395.373 233.560, 398.011 210.905, 391.971 192.880 C 381.906 162.842, 347.904 142.539, 317.500 148.412 M 225.500 178.675 C 219.555 179.992, 209 183.385, 209 183.979 C 209 184.357, 208.429 184.667, 207.730 184.667 C 205.913 184.667, 197.833 190.089, 195.670 192.760 C 194.663 194.002, 193.356 194.720, 192.765 194.355 C 192.168 193.986, 191.978 194.155, 192.337 194.736 C 192.692 195.311, 191.974 196.444, 190.741 197.253 C 183.422 202.059, 138.294 246.946, 128.909 258.755 C 125.953 262.475, 119.859 275.376, 118.394 281.016 C 116.224 289.371, 116.248 302.580, 118.450 311.500 C 119.400 315.350, 122.197 322.711, 124.664 327.858 C 141.711 363.420, 187.928 375.459, 221.051 352.965 C 227.895 348.318, 230.454 343.724, 229.739 337.373 C 229.131 331.986, 226.950 328.549, 222.741 326.345 C 217.107 323.395, 211.498 324.140, 202.127 329.084 C 193.823 333.464, 193.670 333.500, 183.627 333.500 C 175.312 333.500, 172.650 333.108, 168.749 331.306 C 161.662 328.033, 153.750 320.031, 150.374 312.722 C 147.847 307.251, 147.500 305.353, 147.500 297 C 147.500 281.675, 147.771 281.289, 183.877 245.028 C 218.129 210.629, 220.094 209.156, 232.940 208.236 C 255.493 206.623, 274.365 224.957, 272.765 246.925 C 272.395 252, 271.200 255.863, 267.526 263.860 C 263.657 272.282, 262.863 274.940, 263.282 278.064 C 264.534 287.402, 274.494 293.424, 283.208 290.111 C 289.423 287.748, 298.448 272.853, 301.451 260 C 303.589 250.854, 303.415 237.941, 301.028 228.609 C 295.018 205.110, 275.706 186.191, 251.377 179.968 C 244.215 178.137, 230.928 177.473, 225.500 178.675" stroke="none" fill="#2f92f4" fill-rule="evenodd"/></svg>