<svg xmlns="http://www.w3.org/2000/svg" width="512" height="512" viewBox="0 0 512 512" version="1.1"><path d="M 223.564 1.625 C 189.116 6.037, 148.947 20.301, 120.811 38.112 C 88.146 58.791, 58.791 88.146, 38.112 120.811 C 29.618 134.228, 18.618 157.808, 13.188 174.236 C 3.662 203.058, 0 225.763, 0 256 C 0 285.004, 3.613 308.409, 12.171 334.845 L 16.168 347.191 18.334 345.278 C 35.816 329.842, 48 318.609, 48 317.928 C 48 317.462, 46.897 312.675, 45.549 307.290 C 38.172 277.831, 37.477 243.573, 43.636 213 C 53.278 165.138, 79.352 121.618, 118.017 88.854 C 132.784 76.341, 159.213 61.051, 179.378 53.356 C 227.272 35.079, 283.105 35.050, 331.802 53.277 L 340.500 56.533 356 42.579 C 364.525 34.905, 371.625 28.334, 371.779 27.977 C 371.932 27.620, 367.657 25.280, 362.279 22.777 C 339.394 12.125, 313.370 4.779, 287.030 1.536 C 271.561 -0.369, 238.774 -0.323, 223.564 1.625 M 143.344 152.014 C 133.705 153.985, 124.026 161.385, 119.166 170.500 L 116.500 175.500 116.208 216.335 C 115.970 249.515, 116.157 257.023, 117.208 256.386 C 117.918 255.954, 126.938 248.009, 137.250 238.731 L 156 221.861 156 206.930 L 156 192 176.750 191.868 C 188.162 191.796, 196.036 191.458, 194.247 191.118 L 190.994 190.500 209.993 173.500 C 220.443 164.150, 228.995 156.260, 228.997 155.966 C 228.998 155.672, 227.537 154.547, 225.750 153.466 C 222.687 151.613, 220.347 151.490, 185 151.332 C 164.375 151.240, 145.630 151.547, 143.344 152.014" stroke="none" fill="#15bef4" fill-rule="evenodd"/><path d="M 356.504 42.123 L 340.807 56.245 351.654 61.776 C 357.619 64.818, 365.951 69.443, 370.168 72.053 C 422.392 104.381, 459.028 158.850, 469.462 219.679 C 480.968 286.755, 459.826 355.666, 412.268 406.102 C 392.203 427.381, 361.532 447.607, 332.541 458.677 C 320.462 463.290, 300.116 468.521, 286 470.644 C 272.259 472.710, 241.816 472.962, 229 471.115 C 174.452 463.256, 126.315 437.389, 91.995 397.495 C 76.431 379.402, 61.709 354.650, 53.362 332.541 C 51.484 327.568, 49.664 322.825, 49.316 322 C 48.969 321.175, 48.785 319.894, 48.908 319.154 C 49.031 318.414, 41.689 324.470, 32.593 332.612 C 23.497 340.754, 16.402 347.660, 16.826 347.958 C 17.250 348.256, 18.178 350.525, 18.887 353 C 20.781 359.609, 34.613 386.041, 41.913 397 C 83.846 459.955, 151.623 501.839, 225.559 510.488 C 242.111 512.424, 269.889 512.424, 286.441 510.488 C 349.786 503.078, 410.477 470.394, 451.687 421.500 C 483.573 383.668, 504.824 334.855, 510.488 286.441 C 512.424 269.889, 512.424 242.111, 510.488 225.559 C 501.868 151.870, 459.859 83.727, 397.475 42.239 C 389.771 37.115, 373.845 28, 372.598 28 C 372.380 28, 365.138 34.355, 356.504 42.123 M 342.446 120.472 C 339.374 122.008, 333.240 127.221, 326.254 134.233 L 315.009 145.523 341.798 172.298 L 368.587 199.074 381.090 186.287 C 394.683 172.384, 396.019 170.014, 395.978 159.884 C 395.965 156.709, 395.149 152.721, 393.988 150.164 C 391.273 144.181, 369.932 122.774, 364 120.085 C 357.503 117.138, 348.804 117.295, 342.446 120.472 M 210.259 173.251 L 191.019 190.500 194.759 191.192 C 200.813 192.313, 219.415 192.096, 223.101 190.862 C 228.265 189.133, 232.788 185.335, 235.115 180.774 C 238.151 174.823, 237.473 165.733, 233.573 160.106 C 232.008 157.848, 230.452 156, 230.114 156.001 C 229.776 156.002, 220.842 163.764, 210.259 173.251 M 255.145 205.567 C 216.467 244.642, 205.551 256.231, 203.575 260.317 C 202.196 263.168, 197.647 277.110, 193.466 291.300 C 185.418 318.609, 185.132 320.909, 189.302 324.800 C 193.912 329.102, 191.749 329.511, 242.662 314.722 C 247.150 313.418, 253.298 310.851, 256.323 309.018 C 259.964 306.812, 278.163 289.342, 310.156 257.344 L 358.489 209.003 332.002 182.502 C 317.434 167.926, 305.220 156, 304.861 156 C 304.502 156, 282.129 178.305, 255.145 205.567 M 135.801 239.925 L 116.102 257.500 116.051 312.212 C 116.001 365.911, 116.040 367.032, 118.163 372.705 C 121.117 380.600, 129.400 388.883, 137.295 391.837 C 143.069 393.998, 143.169 394, 237 394 C 330.741 394, 330.936 393.996, 336.687 391.844 C 344.420 388.951, 351.896 381.798, 355.626 373.722 L 358.500 367.500 358.843 334 C 359.081 310.762, 358.825 298.872, 358.007 295.187 C 354.856 280.988, 338.462 274.349, 326.834 282.564 C 318.774 288.258, 318.540 289.378, 318.209 323.750 L 317.917 354 236.966 354 L 156.014 354 155.757 288.175 L 155.500 222.349 135.801 239.925" stroke="none" fill="#2d94f4" fill-rule="evenodd"/></svg>