<svg xmlns="http://www.w3.org/2000/svg" width="512" height="512" viewBox="0 0 512 512" version="1.1"><path d="M 306.500 46.066 C 283.091 49.261, 260.804 58.178, 241.108 72.229 C 231.236 79.272, 229.810 79.782, 225.495 77.816 C 223.085 76.717, 222.558 76.969, 218.263 81.263 C 213.969 85.558, 213.717 86.085, 214.816 88.495 C 216.790 92.828, 216.272 94.237, 208.901 104.559 C 197.034 121.177, 188.424 141.201, 184.318 161.730 C 181.913 173.754, 181.925 201.032, 184.341 213.270 C 190.036 242.119, 203.532 267.534, 224.022 287.992 C 244.862 308.801, 269.905 321.968, 299.500 327.680 C 311.709 330.036, 337.051 330.025, 349.758 327.659 C 402.353 317.867, 446.015 278.835, 460.880 228.322 C 466.829 208.107, 468.307 182.137, 464.625 162.500 C 453.654 103.979, 409.446 59.280, 350.842 47.453 C 341.674 45.603, 315.819 44.794, 306.500 46.066 M 174.576 319.924 L 165.999 328.541 174.770 337.271 L 183.541 346.001 192.091 337.251 L 200.641 328.500 191.897 319.903 L 183.153 311.307 174.576 319.924 M 142.483 338.017 L 137.542 343.034 153.267 358.759 L 168.992 374.484 174.234 369.242 L 179.476 364 164 348.500 C 155.488 339.975, 148.277 333, 147.975 333 C 147.672 333, 145.201 335.258, 142.483 338.017" stroke="none" fill="#d7fafa" fill-rule="evenodd"/><path d="M 297 1.640 C 214.739 14.143, 150.519 78.782, 138.545 161.128 C 136.544 174.890, 136.547 200.137, 138.550 213.872 C 142.554 241.316, 152.800 268.351, 167.727 290.858 L 173.271 299.216 164.245 308.241 C 155.363 317.124, 155.182 317.241, 152.887 315.634 C 146.767 311.347, 150.032 308.506, 75.726 382.750 C -3.735 462.144, 0.500 456.979, 0.500 474.500 C 0.500 483.809, 0.737 485.024, 3.750 491.144 C 7.603 498.970, 13.879 505.115, 21.825 508.840 C 26.787 511.166, 28.760 511.500, 37.521 511.500 C 55.018 511.500, 49.868 515.723, 129.250 436.274 C 203.494 361.968, 200.653 365.233, 196.366 359.113 C 194.759 356.818, 194.876 356.637, 203.759 347.755 L 212.784 338.729 221.142 344.280 C 243.409 359.067, 270.875 369.474, 298.128 373.450 C 311.883 375.456, 337.117 375.456, 350.872 373.450 C 418.943 363.519, 475.875 317.789, 500.333 253.397 C 513.572 218.541, 515.770 176.990, 506.305 140.500 C 491.142 82.038, 448.842 34.611, 391.774 12.089 C 381.250 7.935, 363.692 3.410, 350.872 1.545 C 337.582 -0.387, 310.018 -0.338, 297 1.640 M 306.500 46.066 C 283.091 49.261, 260.804 58.178, 241.108 72.229 C 231.236 79.272, 229.810 79.782, 225.495 77.816 C 223.085 76.717, 222.558 76.969, 218.263 81.263 C 213.969 85.558, 213.717 86.085, 214.816 88.495 C 216.790 92.828, 216.272 94.237, 208.901 104.559 C 197.034 121.177, 188.424 141.201, 184.318 161.730 C 181.913 173.754, 181.925 201.032, 184.341 213.270 C 190.036 242.119, 203.532 267.534, 224.022 287.992 C 244.862 308.801, 269.905 321.968, 299.500 327.680 C 311.709 330.036, 337.051 330.025, 349.758 327.659 C 402.353 317.867, 446.015 278.835, 460.880 228.322 C 466.829 208.107, 468.307 182.137, 464.625 162.500 C 453.654 103.979, 409.446 59.280, 350.842 47.453 C 341.674 45.603, 315.819 44.794, 306.500 46.066 M 174.576 319.924 L 165.999 328.541 174.770 337.271 L 183.541 346.001 192.091 337.251 L 200.641 328.500 191.897 319.903 L 183.153 311.307 174.576 319.924 M 142.483 338.017 L 137.542 343.034 153.267 358.759 L 168.992 374.484 174.234 369.242 L 179.476 364 164 348.500 C 155.488 339.975, 148.277 333, 147.975 333 C 147.672 333, 145.201 335.258, 142.483 338.017" stroke="none" fill="#111b1e" fill-rule="evenodd"/></svg>